<svg width="146" height="50" viewBox="0 0 146 50" fill="none" xmlns="http://www.w3.org/2000/svg">
<mask id="mask0_266_68" style="mask-type:luminance" maskUnits="userSpaceOnUse" x="0" y="0" width="39" height="50">
<path d="M18.2291 0.380076C18.1456 0.456334 9.68468 7.97071 1.47915 7.97071C0.663318 7.97071 0 8.62676 0 9.43533V26.9781C0 32.0499 1.35811 36.0346 3.47031 39.1999C3.63856 39.4529 3.81287 39.6998 3.98959 39.9419C4.34667 40.4297 4.7219 40.8957 5.11408 41.3424C5.31017 41.5675 5.51111 41.7878 5.71567 42.0033C9.46922 45.9553 14.4502 48.2987 18.6939 49.9038C19.0329 50.0321 19.4093 50.0321 19.7482 49.9038C31.0016 45.6479 38.4434 39.0087 38.4434 26.9781V9.43533C38.4434 8.62676 37.7801 7.97071 36.9642 7.97071C28.7793 7.97071 20.2978 0.455123 20.2142 0.380076C19.9322 0.127095 19.5763 0 19.2205 0C18.8646 0 18.5087 0.127095 18.2267 0.380076" fill="white"/>
</mask>
<g mask="url(#mask0_266_68)">
<path d="M32.7864 -13.6178L-17.7285 7.36816L5.65646 63.6577L56.1714 42.6717L32.7864 -13.6178Z" fill="url(#paint0_linear_266_68)"/>
</g>
<path d="M30.7271 19.6877L28.7565 21.6582C29.4706 23.0624 29.8749 24.6517 29.8749 26.3317C29.8749 32.0292 25.239 36.664 19.5415 36.664C13.8439 36.664 9.2092 32.028 9.2092 26.3317C9.2092 20.6354 13.8452 15.9983 19.5415 15.9983C21.9393 15.9983 24.1496 16.8189 25.9047 18.1952L27.8099 16.29C25.5597 14.4344 22.6789 13.3184 19.5415 13.3184C12.366 13.3184 6.5293 19.1563 6.5293 26.3317C6.5293 33.5072 12.366 39.3439 19.5415 39.3439C26.7169 39.3439 32.5548 33.5072 32.5548 26.3317C32.5548 23.906 31.8879 21.634 30.7271 19.6877Z" fill="white"/>
<path d="M0.515869 42.7972C0.336725 42.606 0.341566 42.307 0.527973 42.123L6.06208 36.6252C6.32232 36.3674 6.74113 36.3686 6.99774 36.6277L7.16115 36.7923L8.42 38.0596L8.58341 38.2242C8.84123 38.4832 8.84002 38.9021 8.58099 39.1599L2.99121 44.7109C2.79754 44.9034 2.48282 44.8973 2.29642 44.6988L0.515869 42.7984V42.7972Z" fill="white"/>
<path d="M11.6051 34.8972L8.42042 38.0601L5.11473 41.3428C4.72255 40.8961 4.34731 40.4301 3.99023 39.9423L7.16157 36.7927L10.345 33.6299L11.6039 34.8972H11.6051Z" fill="white"/>
<path d="M36.1028 13.0501L19.4182 29.7335L12.2246 22.5399L14.1189 20.6456L19.4182 25.9436L34.2073 11.1558L36.1028 13.0501Z" fill="white"/>
<path d="M49.7266 41.3629L53.7646 30.4097H55.0755L59.1135 41.3629H57.4564L54.4206 32.5267L51.3849 41.3629H49.7278H49.7266ZM51.587 38.9602V37.4992H57.3499V38.9602H51.587Z" fill="#020E19"/>
<path d="M63.4605 41.477C62.9279 41.477 62.4267 41.4261 61.9571 41.3256C61.4875 41.2252 61.0481 41.0751 60.6389 40.8742C60.2298 40.6732 59.8461 40.4227 59.4902 40.1213L60.4465 38.9459C60.8629 39.3079 61.3228 39.579 61.8252 39.7593C62.3275 39.9397 62.8722 40.0305 63.4605 40.0305C64.2545 40.0305 64.8694 39.8828 65.3064 39.5863C65.7433 39.2897 65.9624 38.8757 65.9624 38.3431V38.3359C65.9624 37.9195 65.8523 37.5999 65.6308 37.3796C65.4093 37.1581 65.12 36.9947 64.7605 36.8858C64.401 36.778 64.0088 36.6885 63.5815 36.6183C63.17 36.5481 62.7536 36.4645 62.3348 36.3701C61.9159 36.2745 61.5298 36.1256 61.1788 35.9223C60.8266 35.7189 60.5445 35.426 60.3315 35.0447C60.1185 34.6634 60.0107 34.1538 60.0107 33.5159V33.5087C60.0107 32.4895 60.3496 31.6991 61.0275 31.1398C61.7053 30.5794 62.6628 30.2998 63.8974 30.2998C64.4845 30.2998 65.0594 30.3942 65.6223 30.5818C66.1851 30.7707 66.7323 31.0575 67.2648 31.4449L66.3909 32.665C65.9745 32.3539 65.5581 32.1227 65.1442 31.9714C64.7302 31.8201 64.3138 31.7451 63.8974 31.7451C63.1494 31.7451 62.5672 31.8939 62.1532 32.1929C61.7392 32.4919 61.5322 32.9143 61.5322 33.4627V33.4699C61.5322 33.8815 61.6533 34.1962 61.8942 34.4116C62.135 34.6271 62.4497 34.7869 62.8395 34.8898C63.2281 34.9927 63.6469 35.0895 64.0935 35.1803C64.4954 35.2602 64.8972 35.357 65.2991 35.4708C65.701 35.5833 66.0665 35.7468 66.3958 35.961C66.725 36.174 66.9889 36.467 67.1874 36.8386C67.3859 37.2102 67.4851 37.6956 67.4851 38.2923V38.3068C67.4851 39.3163 67.1329 40.0971 66.4309 40.6502C65.7276 41.2034 64.7387 41.4794 63.4629 41.4794L63.4605 41.477Z" fill="#020E19"/>
<path d="M72.6675 41.477C72.1349 41.477 71.6338 41.4261 71.1641 41.3256C70.6945 41.2252 70.2551 41.0751 69.846 40.8742C69.4368 40.6732 69.0531 40.4227 68.6973 40.1213L69.6535 38.9459C70.0699 39.3079 70.5299 39.579 71.0322 39.7593C71.5345 39.9397 72.0792 40.0305 72.6675 40.0305C73.4603 40.0305 74.0764 39.8828 74.5134 39.5863C74.9504 39.2897 75.1682 38.8757 75.1682 38.3431V38.3359C75.1682 37.9195 75.0581 37.5999 74.8366 37.3796C74.6151 37.1581 74.3258 36.9947 73.9663 36.8858C73.6068 36.778 73.2146 36.6885 72.7873 36.6183C72.3758 36.5481 71.9594 36.4645 71.5406 36.3701C71.1218 36.2745 70.7356 36.1256 70.3846 35.9223C70.0336 35.7189 69.7503 35.426 69.5373 35.0447C69.3243 34.6634 69.2178 34.1538 69.2178 33.5159V33.5087C69.2178 32.4895 69.5567 31.6991 70.2345 31.1398C70.9124 30.5794 71.8698 30.2998 73.1045 30.2998C73.6915 30.2998 74.2665 30.3942 74.8293 30.5818C75.3922 30.7707 75.9393 31.0575 76.4719 31.4449L75.598 32.665C75.1816 32.3539 74.7652 32.1227 74.3512 31.9714C73.9372 31.8201 73.5208 31.7451 73.1045 31.7451C72.3564 31.7451 71.7754 31.8939 71.3602 32.1929C70.9463 32.4919 70.7393 32.9143 70.7393 33.4627V33.4699C70.7393 33.8815 70.8603 34.1962 71.1012 34.4116C71.3421 34.6271 71.6568 34.7869 72.0465 34.8898C72.4351 34.9927 72.8539 35.0895 73.3005 35.1803C73.7024 35.2602 74.1043 35.357 74.5061 35.4708C74.908 35.5833 75.2736 35.7468 75.6028 35.961C75.932 36.174 76.1959 36.467 76.3944 36.8386C76.5929 37.2102 76.6922 37.6956 76.6922 38.2923V38.3068C76.6922 39.3163 76.3412 40.0971 75.6379 40.6502C74.9346 41.2034 73.9457 41.4794 72.6699 41.4794L72.6675 41.477Z" fill="#020E19"/>
<path d="M78.7363 41.3629V30.4097H80.2736V41.3629H78.7363ZM79.482 31.8707V30.4097H85.7726V31.8707H79.482ZM79.482 36.6555V35.1945H84.9434V36.6555H79.482ZM79.482 41.3629V39.9019H85.7726V41.3629H79.482Z" fill="#020E19"/>
<path d="M91.2495 41.477C90.7169 41.477 90.2158 41.4261 89.7462 41.3256C89.2765 41.2252 88.8371 41.0751 88.428 40.8742C88.0189 40.6732 87.6352 40.4227 87.2793 40.1213L88.2355 38.9459C88.6519 39.3079 89.1119 39.579 89.6142 39.7593C90.1166 39.9397 90.6612 40.0305 91.2483 40.0305C92.0424 40.0305 92.6573 39.8828 93.0942 39.5863C93.5312 39.2897 93.7491 38.8757 93.7491 38.3431V38.3359C93.7491 37.9195 93.6389 37.5999 93.4174 37.3796C93.1959 37.1581 92.9066 36.9947 92.5471 36.8858C92.1876 36.778 91.7954 36.6885 91.3681 36.6183C90.9566 36.5481 90.5402 36.4645 90.1214 36.3701C89.7026 36.2745 89.3165 36.1256 88.9654 35.9223C88.6132 35.7189 88.3312 35.426 88.1181 35.0447C87.9051 34.6634 87.7974 34.1538 87.7974 33.5159V33.5087C87.7974 32.4895 88.1363 31.6991 88.8141 31.1398C89.492 30.5794 90.4494 30.2998 91.6841 30.2998C92.2711 30.2998 92.8461 30.3942 93.4089 30.5818C93.9718 30.7707 94.5189 31.0575 95.0515 31.4449L94.1776 32.665C93.7612 32.3539 93.3448 32.1227 92.9308 31.9714C92.5168 31.8201 92.1005 31.7451 91.6841 31.7451C90.936 31.7451 90.3538 31.8939 89.9398 32.1929C89.5259 32.4919 89.3189 32.9143 89.3189 33.4627V33.4699C89.3189 33.8815 89.4399 34.1962 89.6808 34.4116C89.9217 34.6271 90.2364 34.7869 90.6261 34.8898C91.0147 34.9927 91.4335 35.0895 91.8802 35.1803C92.282 35.2602 92.6839 35.357 93.0857 35.4708C93.4876 35.5833 93.8532 35.7468 94.1824 35.961C94.5116 36.174 94.7755 36.467 94.974 36.8386C95.1725 37.2102 95.2718 37.6956 95.2718 38.2923V38.3068C95.2718 39.3163 94.9208 40.0971 94.2175 40.6502C93.5142 41.2034 92.5253 41.4794 91.2495 41.4794V41.477Z" fill="#020E19"/>
<path d="M100.457 41.477C99.924 41.477 99.4228 41.4261 98.9532 41.3256C98.4835 41.2252 98.0442 41.0751 97.635 40.8742C97.2259 40.6732 96.8422 40.4227 96.4863 40.1213L97.4426 38.9459C97.859 39.3079 98.3189 39.579 98.8213 39.7593C99.3236 39.9397 99.8683 40.0305 100.455 40.0305C101.249 40.0305 101.864 39.8828 102.301 39.5863C102.738 39.2897 102.956 38.8757 102.956 38.3431V38.3359C102.956 37.9195 102.846 37.5999 102.624 37.3796C102.403 37.1581 102.114 36.9947 101.754 36.8858C101.395 36.778 101.002 36.6885 100.575 36.6183C100.164 36.5481 99.7472 36.4645 99.3284 36.3701C98.9096 36.2745 98.5235 36.1256 98.1725 35.9223C97.8202 35.7189 97.5382 35.426 97.3252 35.0447C97.1121 34.6634 97.0044 34.1538 97.0044 33.5159V33.5087C97.0044 32.4895 97.3433 31.6991 98.0212 31.1398C98.699 30.5794 99.6565 30.2998 100.891 30.2998C101.478 30.2998 102.053 30.3942 102.616 30.5818C103.179 30.7707 103.726 31.0575 104.259 31.4449L103.385 32.665C102.968 32.3539 102.552 32.1227 102.138 31.9714C101.724 31.8201 101.307 31.7451 100.891 31.7451C100.143 31.7451 99.5608 31.8939 99.1469 32.1929C98.7329 32.4919 98.5259 32.9143 98.5259 33.4627V33.4699C98.5259 33.8815 98.647 34.1962 98.8878 34.4116C99.1287 34.6271 99.4434 34.7869 99.8332 34.8898C100.222 34.9927 100.641 35.0895 101.087 35.1803C101.489 35.2602 101.891 35.357 102.293 35.4708C102.695 35.5833 103.06 35.7468 103.389 35.961C103.719 36.174 103.983 36.467 104.181 36.8386C104.38 37.2102 104.479 37.6956 104.479 38.2923V38.3068C104.479 39.3163 104.128 40.0971 103.425 40.6502C102.721 41.2034 101.732 41.4794 100.457 41.4794V41.477Z" fill="#020E19"/>
<path d="M111.181 37.6422L114.398 30.4099H115.837V41.3631H114.338V33.1588L114.413 33.6406L111.716 39.8404H110.646L107.949 33.7906L108.024 33.1576V41.3619H106.525V30.4087H107.965L111.182 37.641L111.181 37.6422Z" fill="#020E19"/>
<path d="M118.549 41.3629V30.4097H120.086V41.3629H118.549ZM119.294 31.8707V30.4097H125.585V31.8707H119.294ZM119.294 36.6555V35.1945H124.756V36.6555H119.294ZM119.294 41.3629V39.9019H125.585V41.3629H119.294Z" fill="#020E19"/>
<path d="M127.769 41.3556V30.4097H129.162L134.518 38.8779L134.338 39.074V30.4109H135.859V41.3568H134.45L129.109 33.0169L129.289 32.8209V41.3568H127.768L127.769 41.3556Z" fill="#020E19"/>
<path d="M137.668 31.8707V30.4097H145.398V31.8707H137.668ZM140.764 41.3629V31.3054H142.302V41.3629H140.764Z" fill="#020E19"/>
<path d="M49.9238 23.3037V11.6812H51.5543V23.3037H49.9238ZM50.7154 13.2317V11.6812H57.3898V13.2317H50.7154ZM50.7154 18.3071V16.7565H56.511V18.3071H50.7154ZM50.7154 23.3037V21.7532H57.3898V23.3037H50.7154Z" fill="#3178BD"/>
<path d="M59.707 23.3037V11.6812H61.3375V23.3037H59.707ZM60.7226 18.3555V16.8049H67.173V18.3555H60.7226ZM66.3099 23.3037V11.6812H67.9404V23.3037H66.3099Z" fill="#3178BD"/>
<path d="M74.3119 23.4235C73.7466 23.4235 73.2153 23.3703 72.7178 23.2637C72.2191 23.1572 71.7531 22.9974 71.3185 22.7844C70.884 22.5714 70.4773 22.3051 70.0996 21.9855L71.1152 20.7388C71.557 21.1225 72.0448 21.4106 72.5774 21.6018C73.11 21.7931 73.6885 21.8899 74.3119 21.8899C75.1544 21.8899 75.8068 21.7325 76.2704 21.4178C76.734 21.1031 76.9664 20.6637 76.9664 20.0985V20.09C76.9664 19.6482 76.849 19.3093 76.6142 19.0744C76.3793 18.8396 76.0719 18.6653 75.6906 18.5503C75.3093 18.4353 74.8929 18.3409 74.439 18.2671C74.002 18.192 73.5614 18.1049 73.116 18.0032C72.6706 17.9015 72.2614 17.743 71.8886 17.5275C71.5158 17.312 71.2156 17.001 70.9893 16.5967C70.7629 16.1924 70.6491 15.6513 70.6491 14.9735V14.965C70.6491 13.8829 71.0086 13.0453 71.7288 12.4509C72.4478 11.8566 73.4634 11.5601 74.7743 11.5601C75.3977 11.5601 76.0077 11.6605 76.6045 11.8602C77.2012 12.06 77.7822 12.365 78.3475 12.7753L77.4203 14.0705C76.9785 13.7401 76.5367 13.4955 76.0973 13.3346C75.6579 13.1748 75.2161 13.0949 74.7743 13.0949C73.9803 13.0949 73.3641 13.2535 72.9235 13.5706C72.4842 13.8877 72.2639 14.3368 72.2639 14.9178V14.9263C72.2639 15.3632 72.3922 15.6961 72.6476 15.9249C72.903 16.1537 73.2383 16.3231 73.651 16.4321C74.0638 16.541 74.508 16.6439 74.9825 16.7395C75.4086 16.8242 75.8346 16.9271 76.2619 17.047C76.688 17.1668 77.0753 17.3399 77.4252 17.5662C77.7738 17.7926 78.0546 18.1037 78.264 18.4971C78.4746 18.8917 78.5799 19.4061 78.5799 20.0404V20.0561C78.5799 21.1273 78.2071 21.9565 77.4603 22.5423C76.7146 23.1282 75.664 23.4211 74.3107 23.4211L74.3119 23.4235Z" fill="#3178BD"/>
<path d="M87.8863 23.3037L84.0977 11.6812H85.8722L88.6622 20.7945L91.4523 11.6812H93.2268L89.4381 23.3037H87.8875H87.8863Z" fill="#3178BD"/>
<path d="M94.9688 23.3037V11.6812H96.5992V23.3037H94.9688ZM95.7604 13.2317V11.6812H102.435V13.2317H95.7604ZM95.7604 18.3071V16.7565H101.556V18.3071H95.7604ZM95.7604 23.3037V21.7532H102.435V23.3037H95.7604Z" fill="#3178BD"/>
<path d="M104.754 23.295V11.6797H106.233L111.916 20.6647L111.725 20.8729V11.6797H113.34V23.295H111.845L106.177 14.4455L106.369 14.2373V23.2938H104.754V23.295Z" fill="#3178BD"/>
<path d="M116.217 23.3037V11.6812H117.847V23.3037H116.217ZM117.32 23.3037V21.7532H119.95C120.808 21.7532 121.472 21.5305 121.945 21.0862C122.417 20.642 122.651 20.0138 122.651 19.204V15.7833C122.651 14.9735 122.415 14.3453 121.945 13.9011C121.472 13.4556 120.808 13.2341 119.95 13.2341H117.32V11.6836H119.901C121.308 11.6836 122.397 12.0467 123.167 12.7742C123.937 13.5016 124.322 14.5257 124.322 15.8475V19.1411C124.322 20.0198 124.149 20.7703 123.803 21.3913C123.456 22.0122 122.953 22.4867 122.292 22.8135C121.631 23.1415 120.832 23.305 119.894 23.305H117.321L117.32 23.3037Z" fill="#3178BD"/>
<path d="M130.494 23.4233C129.673 23.4233 128.957 23.2466 128.344 22.8919C127.732 22.5373 127.256 22.0373 126.917 21.3934C126.578 20.7482 126.41 19.9978 126.41 19.1396V15.846C126.41 14.9829 126.58 14.23 126.917 13.5873C127.255 12.9458 127.731 12.4471 128.344 12.0924C128.957 11.7378 129.673 11.561 130.494 11.561C131.315 11.561 132.031 11.7378 132.644 12.0924C133.256 12.4471 133.732 12.9446 134.071 13.5873C134.409 14.23 134.578 14.9817 134.578 15.846V19.1396C134.578 19.9978 134.409 20.7494 134.071 21.3934C133.732 22.0386 133.256 22.5385 132.644 22.8919C132.031 23.2466 131.314 23.4233 130.494 23.4233ZM130.494 21.817C131.224 21.817 131.809 21.5774 132.249 21.098C132.689 20.6187 132.909 19.9844 132.909 19.1952V15.7903C132.909 14.9962 132.689 14.3608 132.249 13.8839C131.81 13.4069 131.225 13.1685 130.494 13.1685C129.763 13.1685 129.186 13.4069 128.744 13.8839C128.301 14.3608 128.081 14.9962 128.081 15.7903V19.1952C128.081 19.9844 128.302 20.6175 128.744 21.098C129.186 21.5774 129.769 21.817 130.494 21.817Z" fill="#3178BD"/>
<path d="M137.068 23.3039V11.6729H138.699V23.3039H137.068ZM137.78 18.3871V16.8366H141.745C142.22 16.8366 142.601 16.6719 142.888 16.3415C143.176 16.011 143.32 15.5741 143.32 15.0306C143.32 14.4871 143.176 14.0501 142.888 13.7197C142.6 13.3892 142.219 13.2246 141.745 13.2246H137.78V11.6741H141.681C142.358 11.6741 142.95 11.8145 143.456 12.0941C143.962 12.3737 144.355 12.7647 144.635 13.2646C144.914 13.7657 145.055 14.354 145.055 15.0306C145.055 15.7072 144.913 16.2894 144.631 16.793C144.349 17.2965 143.956 17.6887 143.452 17.9683C142.949 18.2479 142.358 18.3883 141.681 18.3883H137.78V18.3871ZM143.607 23.3039L140.945 18.0276L142.569 17.6597L145.543 23.3027H143.608L143.607 23.3039Z" fill="#3178BD"/>
<defs>
<linearGradient id="paint0_linear_266_68" x1="10.0407" y1="2.60314" x2="29.2216" y2="48.7731" gradientUnits="userSpaceOnUse">
<stop stop-color="#3079BD"/>
<stop offset="0.42" stop-color="#4695A3"/>
<stop offset="1" stop-color="#63B984"/>
</linearGradient>
</defs>
</svg>
